<?xml version='1.0' encoding='ASCII' standalone='yes'?>
<svg xmlns:xlink="http://www.w3.org/1999/xlink" xmlns="http://www.w3.org/2000/svg" version="1.1" width="19in" viewBox="0 0 19in 11.5in" height="11.5in">
  <g>
    <g><metadata xmlns:rdf="http://www.w3.org/1999/02/22-rdf-syntax-ns#" xmlns:cc="http://creativecommons.org/ns#" xmlns:dc="http://purl.org/dc/elements/1.1/" id="metadata64">
    <rdf:RDF>
      <cc:Work rdf:about="">
        <dc:format>image/svg+xml</dc:format>
        <dc:type rdf:resource="http://purl.org/dc/dcmitype/StillImage"/>
        <dc:title/>
      </cc:Work>
    </rdf:RDF>
  </metadata>
  <sodipodi:namedview xmlns:sodipodi="http://sodipodi.sourceforge.net/DTD/sodipodi-0.dtd" xmlns:inkscape="http://www.inkscape.org/namespaces/inkscape" pagecolor="#ffffff" bordercolor="#666666" borderopacity="1" objecttolerance="10" gridtolerance="10" guidetolerance="10" inkscape:pageopacity="0" inkscape:pageshadow="2" inkscape:window-width="958" inkscape:window-height="1008" id="namedview62" showgrid="false" inkscape:zoom="0.5" inkscape:cx="403.95534" inkscape:cy="606.18159" inkscape:window-x="953" inkscape:window-y="0" inkscape:window-maximized="0" inkscape:current-layer="layer4" inkscape:snap-grids="false" units="in" fit-margin-top="0" fit-margin-left="0" fit-margin-right="0" fit-margin-bottom="0" inkscape:lockguides="true"/>
  <defs xmlns:osb="http://www.openswatchbook.org/uri/2009/osb" id="defs2">
    <linearGradient id="linearGradient2508" osb:paint="solid">
      <stop style="stop-color:#000000;stop-opacity:1;" offset="0" id="stop2506"/>
    </linearGradient>
    <clipPath id="mx-clip-835-238-130-24-0">
      <rect x="835" y="238" width="130" height="24" id="rect113"/>
    </clipPath>
    <clipPath id="mx-clip-835-212-130-24-0">
      <rect x="835" y="212" width="130" height="24" id="rect110"/>
    </clipPath>
    <clipPath id="mx-clip-835-186-130-24-0">
      <rect x="835" y="186" width="130" height="24" id="rect107"/>
    </clipPath>
    <clipPath id="mx-clip-620-463-130-24-0">
      <rect x="620" y="463" width="130" height="24" id="rect29"/>
    </clipPath>
    <clipPath id="mx-clip-620-437-130-24-0">
      <rect x="620" y="437" width="130" height="24" id="rect26"/>
    </clipPath>
    <clipPath id="mx-clip-620-411-130-24-0">
      <rect x="620" y="411" width="130" height="24" id="rect23"/>
    </clipPath>
    <clipPath id="mx-clip-620-385-130-24-0">
      <rect x="620" y="385" width="130" height="24" id="rect20"/>
    </clipPath>
    <clipPath id="mx-clip-620-359-130-24-0">
      <rect x="620" y="359" width="130" height="24" id="rect17"/>
    </clipPath>
    <clipPath id="mx-clip-620-359-130-24-0-2">
      <rect x="620" y="359" width="130" height="24" id="rect17-8"/>
    </clipPath>
    <clipPath id="mx-clip-620-385-130-24-0-7">
      <rect x="620" y="385" width="130" height="24" id="rect20-0"/>
    </clipPath>
    <clipPath id="mx-clip-620-411-130-24-0-4">
      <rect x="620" y="411" width="130" height="24" id="rect23-0"/>
    </clipPath>
    <clipPath id="mx-clip-620-437-130-24-0-7">
      <rect x="620" y="437" width="130" height="24" id="rect26-0"/>
    </clipPath>
    <clipPath id="mx-clip-620-463-130-24-0-9">
      <rect x="620" y="463" width="130" height="24" id="rect29-3"/>
    </clipPath>
    <clipPath id="mx-clip-620-359-130-24-0-2-6">
      <rect x="620" y="359" width="130" height="24" id="rect17-8-6"/>
    </clipPath>
    <clipPath id="mx-clip-620-385-130-24-0-7-1">
      <rect x="620" y="385" width="130" height="24" id="rect20-0-3"/>
    </clipPath>
    <clipPath id="mx-clip-620-411-130-24-0-4-2">
      <rect x="620" y="411" width="130" height="24" id="rect23-0-8"/>
    </clipPath>
    <clipPath id="mx-clip-620-437-130-24-0-7-7">
      <rect x="620" y="437" width="130" height="24" id="rect26-0-1"/>
    </clipPath>
    <clipPath id="mx-clip-620-463-130-24-0-9-7">
      <rect x="620" y="463" width="130" height="24" id="rect29-3-8"/>
    </clipPath>
    <clipPath id="mx-clip-620-359-130-24-0-2-0">
      <rect x="620" y="359" width="130" height="24" id="rect17-8-3"/>
    </clipPath>
    <clipPath id="mx-clip-620-385-130-24-0-7-9">
      <rect x="620" y="385" width="130" height="24" id="rect20-0-6"/>
    </clipPath>
    <clipPath id="mx-clip-620-411-130-24-0-4-4">
      <rect x="620" y="411" width="130" height="24" id="rect23-0-6"/>
    </clipPath>
    <clipPath id="mx-clip-620-437-130-24-0-7-78">
      <rect x="620" y="437" width="130" height="24" id="rect26-0-0"/>
    </clipPath>
    <clipPath id="mx-clip-620-463-130-24-0-9-4">
      <rect x="620" y="463" width="130" height="24" id="rect29-3-84"/>
    </clipPath>
    <clipPath id="mx-clip-620-359-130-24-0-2-3">
      <rect x="620" y="359" width="130" height="24" id="rect17-8-8"/>
    </clipPath>
    <clipPath id="mx-clip-620-385-130-24-0-7-17">
      <rect x="620" y="385" width="130" height="24" id="rect20-0-61"/>
    </clipPath>
    <clipPath id="mx-clip-620-411-130-24-0-4-7">
      <rect x="620" y="411" width="130" height="24" id="rect23-0-82"/>
    </clipPath>
    <clipPath id="mx-clip-620-437-130-24-0-7-6">
      <rect x="620" y="437" width="130" height="24" id="rect26-0-2"/>
    </clipPath>
    <clipPath id="mx-clip-620-463-130-24-0-9-3">
      <rect x="620" y="463" width="130" height="24" id="rect29-3-0"/>
    </clipPath>
    <clipPath id="mx-clip-620-359-130-24-0-2-7">
      <rect x="620" y="359" width="130" height="24" id="rect17-8-7"/>
    </clipPath>
    <clipPath id="mx-clip-620-385-130-24-0-7-3">
      <rect x="620" y="385" width="130" height="24" id="rect20-0-2"/>
    </clipPath>
    <clipPath id="mx-clip-620-411-130-24-0-4-9">
      <rect x="620" y="411" width="130" height="24" id="rect23-0-7"/>
    </clipPath>
    <clipPath id="mx-clip-620-437-130-24-0-7-9">
      <rect x="620" y="437" width="130" height="24" id="rect26-0-24"/>
    </clipPath>
    <clipPath id="mx-clip-620-463-130-24-0-9-9">
      <rect x="620" y="463" width="130" height="24" id="rect29-3-7"/>
    </clipPath>
    <clipPath id="mx-clip-620-437-130-24-0-7-9-2">
      <rect x="620" y="437" width="130" height="24" id="rect26-0-24-6"/>
    </clipPath>
    <clipPath id="mx-clip-620-463-130-24-0-9-9-9">
      <rect x="620" y="463" width="130" height="24" id="rect29-3-7-7"/>
    </clipPath>
    <clipPath id="mx-clip-620-359-130-24-0-2-7-0">
      <rect x="620" y="359" width="130" height="24" id="rect17-8-7-8"/>
    </clipPath>
    <clipPath id="mx-clip-620-385-130-24-0-7-3-4">
      <rect x="620" y="385" width="130" height="24" id="rect20-0-2-1"/>
    </clipPath>
    <clipPath id="mx-clip-620-411-130-24-0-4-9-2">
      <rect x="620" y="411" width="130" height="24" id="rect23-0-7-3"/>
    </clipPath>
    <clipPath id="mx-clip-620-359-130-24-0-2-79">
      <rect x="620" y="359" width="130" height="24" id="rect17-8-5"/>
    </clipPath>
    <clipPath id="mx-clip-620-359-130-24-0-2-4">
      <rect x="620" y="359" width="130" height="24" id="rect17-8-1"/>
    </clipPath>
    <clipPath id="mx-clip-620-385-130-24-0-7-7">
      <rect x="620" y="385" width="130" height="24" id="rect20-0-30"/>
    </clipPath>
    <clipPath id="mx-clip-620-411-130-24-0-4-1">
      <rect x="620" y="411" width="130" height="24" id="rect23-0-4"/>
    </clipPath>
    <clipPath id="mx-clip-620-359-130-24-0-2-4-7">
      <rect x="620" y="359" width="130" height="24" id="rect17-8-1-7"/>
    </clipPath>
    <clipPath id="mx-clip-620-385-130-24-0-7-7-7">
      <rect x="620" y="385" width="130" height="24" id="rect20-0-30-9"/>
    </clipPath>
    <clipPath id="mx-clip-620-411-130-24-0-4-1-1">
      <rect x="620" y="411" width="130" height="24" id="rect23-0-4-0"/>
    </clipPath>
    <clipPath id="mx-clip-620-437-130-24-0-7-7-0">
      <rect x="620" y="437" width="130" height="24" id="rect26-0-1-9"/>
    </clipPath>
    <clipPath id="mx-clip-620-463-130-24-0-9-7-1">
      <rect x="620" y="463" width="130" height="24" id="rect29-3-8-2"/>
    </clipPath>
    <clipPath id="mx-clip-620-359-130-24-0-2-7-2">
      <rect x="620" y="359" width="130" height="24" id="rect17-8-7-9"/>
    </clipPath>
    <clipPath id="mx-clip-620-385-130-24-0-7-3-0">
      <rect x="620" y="385" width="130" height="24" id="rect20-0-2-4"/>
    </clipPath>
    <clipPath id="mx-clip-620-411-130-24-0-4-9-0">
      <rect x="620" y="411" width="130" height="24" id="rect23-0-7-1"/>
    </clipPath>
    <clipPath id="mx-clip-620-359-130-24-0-2-01">
      <rect x="620" y="359" width="130" height="24" id="rect17-8-2"/>
    </clipPath>
    <clipPath id="mx-clip-620-385-130-24-0-7-0">
      <rect x="620" y="385" width="130" height="24" id="rect20-0-9"/>
    </clipPath>
    <clipPath id="mx-clip-620-411-130-24-0-4-3">
      <rect x="620" y="411" width="130" height="24" id="rect23-0-62"/>
    </clipPath>
    <clipPath id="mx-clip-620-437-130-24-0-7-8">
      <rect x="620" y="437" width="130" height="24" id="rect26-0-4"/>
    </clipPath>
    <clipPath id="mx-clip-620-463-130-24-0-9-6">
      <rect x="620" y="463" width="130" height="24" id="rect29-3-5"/>
    </clipPath>
    <clipPath id="mx-clip-620-411-130-24-0-4-9-0-4">
      <rect x="620" y="411" width="130" height="24" id="rect23-0-7-1-9"/>
    </clipPath>
    <clipPath id="mx-clip-620-385-130-24-0-7-3-0-8">
      <rect x="620" y="385" width="130" height="24" id="rect20-0-2-4-3"/>
    </clipPath>
    <clipPath id="mx-clip-620-385-130-24-0-7-3-0-2">
      <rect x="620" y="385" width="130" height="24" id="rect20-0-2-4-2"/>
    </clipPath>
    <clipPath id="mx-clip-620-411-130-24-0-4-9-0-9">
      <rect x="620" y="411" width="130" height="24" id="rect23-0-7-1-4"/>
    </clipPath>
    <clipPath id="mx-clip-835-238-130-24-0-2">
      <rect id="rect113-9" height="24" width="130" y="238" x="835"/>
    </clipPath>
    <clipPath id="mx-clip-835-212-130-24-0-5">
      <rect id="rect110-8" height="24" width="130" y="212" x="835"/>
    </clipPath>
    <clipPath id="mx-clip-835-186-130-24-0-2">
      <rect id="rect107-3" height="24" width="130" y="186" x="835"/>
    </clipPath>
    <clipPath id="mx-clip-620-463-130-24-0-5">
      <rect id="rect29-0" height="24" width="130" y="463" x="620"/>
    </clipPath>
    <clipPath id="mx-clip-620-437-130-24-0-8">
      <rect id="rect26-4" height="24" width="130" y="437" x="620"/>
    </clipPath>
    <clipPath id="mx-clip-620-411-130-24-0-0">
      <rect id="rect23-4" height="24" width="130" y="411" x="620"/>
    </clipPath>
    <clipPath id="mx-clip-620-385-130-24-0-5">
      <rect id="rect20-1" height="24" width="130" y="385" x="620"/>
    </clipPath>
    <clipPath id="mx-clip-620-359-130-24-0-1">
      <rect id="rect17-7" height="24" width="130" y="359" x="620"/>
    </clipPath>
    <clipPath id="mx-clip-620-359-130-24-0-2-60">
      <rect id="rect17-8-81" height="24" width="130" y="359" x="620"/>
    </clipPath>
    <clipPath id="mx-clip-620-385-130-24-0-7-2">
      <rect id="rect20-0-4" height="24" width="130" y="385" x="620"/>
    </clipPath>
    <clipPath id="mx-clip-620-411-130-24-0-4-5">
      <rect id="rect23-0-86" height="24" width="130" y="411" x="620"/>
    </clipPath>
    <clipPath id="mx-clip-620-437-130-24-0-7-2">
      <rect id="rect26-0-9" height="24" width="130" y="437" x="620"/>
    </clipPath>
    <clipPath id="mx-clip-620-463-130-24-0-9-72">
      <rect id="rect29-3-9" height="24" width="130" y="463" x="620"/>
    </clipPath>
    <clipPath id="mx-clip-620-359-130-24-0-2-6-5">
      <rect id="rect17-8-6-2" height="24" width="130" y="359" x="620"/>
    </clipPath>
    <clipPath id="mx-clip-620-385-130-24-0-7-1-9">
      <rect id="rect20-0-3-9" height="24" width="130" y="385" x="620"/>
    </clipPath>
    <clipPath id="mx-clip-620-411-130-24-0-4-2-7">
      <rect id="rect23-0-8-6" height="24" width="130" y="411" x="620"/>
    </clipPath>
    <clipPath id="mx-clip-620-437-130-24-0-7-7-6">
      <rect id="rect26-0-1-4" height="24" width="130" y="437" x="620"/>
    </clipPath>
    <clipPath id="mx-clip-620-463-130-24-0-9-7-2">
      <rect id="rect29-3-8-26" height="24" width="130" y="463" x="620"/>
    </clipPath>
    <clipPath id="mx-clip-620-359-130-24-0-2-0-9">
      <rect id="rect17-8-3-4" height="24" width="130" y="359" x="620"/>
    </clipPath>
    <clipPath id="mx-clip-620-385-130-24-0-7-9-8">
      <rect id="rect20-0-6-3" height="24" width="130" y="385" x="620"/>
    </clipPath>
    <clipPath id="mx-clip-620-411-130-24-0-4-4-3">
      <rect id="rect23-0-6-5" height="24" width="130" y="411" x="620"/>
    </clipPath>
    <clipPath id="mx-clip-620-437-130-24-0-7-78-2">
      <rect id="rect26-0-0-0" height="24" width="130" y="437" x="620"/>
    </clipPath>
    <clipPath id="mx-clip-620-463-130-24-0-9-4-3">
      <rect id="rect29-3-84-5" height="24" width="130" y="463" x="620"/>
    </clipPath>
    <clipPath id="mx-clip-620-359-130-24-0-2-3-1">
      <rect id="rect17-8-8-0" height="24" width="130" y="359" x="620"/>
    </clipPath>
    <clipPath id="mx-clip-620-385-130-24-0-7-17-3">
      <rect id="rect20-0-61-5" height="24" width="130" y="385" x="620"/>
    </clipPath>
    <clipPath id="mx-clip-620-411-130-24-0-4-7-1">
      <rect id="rect23-0-82-2" height="24" width="130" y="411" x="620"/>
    </clipPath>
    <clipPath id="mx-clip-620-437-130-24-0-7-6-8">
      <rect id="rect26-0-2-1" height="24" width="130" y="437" x="620"/>
    </clipPath>
    <clipPath id="mx-clip-620-463-130-24-0-9-3-8">
      <rect id="rect29-3-0-6" height="24" width="130" y="463" x="620"/>
    </clipPath>
    <clipPath id="mx-clip-620-359-130-24-0-2-7-6">
      <rect id="rect17-8-7-1" height="24" width="130" y="359" x="620"/>
    </clipPath>
    <clipPath id="mx-clip-620-385-130-24-0-7-3-8">
      <rect id="rect20-0-2-0" height="24" width="130" y="385" x="620"/>
    </clipPath>
    <clipPath id="mx-clip-620-411-130-24-0-4-9-5">
      <rect id="rect23-0-7-5" height="24" width="130" y="411" x="620"/>
    </clipPath>
    <clipPath id="mx-clip-620-437-130-24-0-7-9-23">
      <rect id="rect26-0-24-4" height="24" width="130" y="437" x="620"/>
    </clipPath>
    <clipPath id="mx-clip-620-463-130-24-0-9-9-8">
      <rect id="rect29-3-7-2" height="24" width="130" y="463" x="620"/>
    </clipPath>
    <clipPath id="mx-clip-620-437-130-24-0-7-9-2-0">
      <rect id="rect26-0-24-6-3" height="24" width="130" y="437" x="620"/>
    </clipPath>
    <clipPath id="mx-clip-620-463-130-24-0-9-9-9-1">
      <rect id="rect29-3-7-7-8" height="24" width="130" y="463" x="620"/>
    </clipPath>
    <clipPath id="mx-clip-620-359-130-24-0-2-7-0-3">
      <rect id="rect17-8-7-8-1" height="24" width="130" y="359" x="620"/>
    </clipPath>
    <clipPath id="mx-clip-620-385-130-24-0-7-3-4-8">
      <rect id="rect20-0-2-1-1" height="24" width="130" y="385" x="620"/>
    </clipPath>
    <clipPath id="mx-clip-620-411-130-24-0-4-9-2-3">
      <rect id="rect23-0-7-3-6" height="24" width="130" y="411" x="620"/>
    </clipPath>
    <clipPath id="mx-clip-620-359-130-24-0-2-79-1">
      <rect id="rect17-8-5-8" height="24" width="130" y="359" x="620"/>
    </clipPath>
    <clipPath id="mx-clip-620-359-130-24-0-2-4-2">
      <rect id="rect17-8-1-1" height="24" width="130" y="359" x="620"/>
    </clipPath>
    <clipPath id="mx-clip-620-385-130-24-0-7-7-4">
      <rect id="rect20-0-30-1" height="24" width="130" y="385" x="620"/>
    </clipPath>
    <clipPath id="mx-clip-620-411-130-24-0-4-1-6">
      <rect id="rect23-0-4-1" height="24" width="130" y="411" x="620"/>
    </clipPath>
    <clipPath id="mx-clip-620-359-130-24-0-2-4-7-9">
      <rect id="rect17-8-1-7-7" height="24" width="130" y="359" x="620"/>
    </clipPath>
    <clipPath id="mx-clip-620-385-130-24-0-7-7-7-1">
      <rect id="rect20-0-30-9-8" height="24" width="130" y="385" x="620"/>
    </clipPath>
    <clipPath id="mx-clip-620-411-130-24-0-4-1-1-2">
      <rect id="rect23-0-4-0-6" height="24" width="130" y="411" x="620"/>
    </clipPath>
    <clipPath id="mx-clip-620-437-130-24-0-7-7-0-0">
      <rect id="rect26-0-1-9-8" height="24" width="130" y="437" x="620"/>
    </clipPath>
    <clipPath id="mx-clip-620-463-130-24-0-9-7-1-1">
      <rect id="rect29-3-8-2-4" height="24" width="130" y="463" x="620"/>
    </clipPath>
    <clipPath id="mx-clip-620-359-130-24-0-2-7-2-6">
      <rect id="rect17-8-7-9-6" height="24" width="130" y="359" x="620"/>
    </clipPath>
    <clipPath id="mx-clip-620-385-130-24-0-7-3-0-21">
      <rect id="rect20-0-2-4-5" height="24" width="130" y="385" x="620"/>
    </clipPath>
    <clipPath id="mx-clip-620-411-130-24-0-4-9-0-46">
      <rect id="rect23-0-7-1-8" height="24" width="130" y="411" x="620"/>
    </clipPath>
    <clipPath id="mx-clip-620-359-130-24-0-2-01-4">
      <rect id="rect17-8-2-3" height="24" width="130" y="359" x="620"/>
    </clipPath>
    <clipPath id="mx-clip-620-385-130-24-0-7-0-6">
      <rect id="rect20-0-9-2" height="24" width="130" y="385" x="620"/>
    </clipPath>
    <clipPath id="mx-clip-620-411-130-24-0-4-3-3">
      <rect id="rect23-0-62-8" height="24" width="130" y="411" x="620"/>
    </clipPath>
    <clipPath id="mx-clip-620-437-130-24-0-7-8-6">
      <rect id="rect26-0-4-7" height="24" width="130" y="437" x="620"/>
    </clipPath>
    <clipPath id="mx-clip-620-463-130-24-0-9-6-5">
      <rect id="rect29-3-5-4" height="24" width="130" y="463" x="620"/>
    </clipPath>
    <clipPath id="mx-clip-620-411-130-24-0-4-9-0-4-4">
      <rect id="rect23-0-7-1-9-1" height="24" width="130" y="411" x="620"/>
    </clipPath>
    <clipPath id="mx-clip-620-385-130-24-0-7-3-0-8-6">
      <rect id="rect20-0-2-4-3-0" height="24" width="130" y="385" x="620"/>
    </clipPath>
    <clipPath id="mx-clip-620-385-130-24-0-7-3-0-2-3">
      <rect id="rect20-0-2-4-2-1" height="24" width="130" y="385" x="620"/>
    </clipPath>
    <clipPath id="mx-clip-620-411-130-24-0-4-9-0-9-0">
      <rect id="rect23-0-7-1-4-5" height="24" width="130" y="411" x="620"/>
    </clipPath>
    <clipPath id="mx-clip-620-437-130-24-0-7-9-2-6">
      <rect x="620" y="437" width="130" height="24" id="rect26-0-24-6-0"/>
    </clipPath>
    <clipPath id="mx-clip-620-463-130-24-0-9-9-9-5">
      <rect x="620" y="463" width="130" height="24" id="rect29-3-7-7-0"/>
    </clipPath>
    <clipPath id="mx-clip-620-463-130-24-0-9-9-9-5-4">
      <rect x="620" y="463" width="130" height="24" id="rect29-3-7-7-0-7"/>
    </clipPath>
    <clipPath id="mx-clip-620-437-130-24-0-7-9-2-6-9">
      <rect x="620" y="437" width="130" height="24" id="rect26-0-24-6-0-1"/>
    </clipPath>
    <clipPath id="mx-clip-620-463-130-24-0-9-9-9-5-6">
      <rect x="620" y="463" width="130" height="24" id="rect29-3-7-7-0-3"/>
    </clipPath>
    <clipPath id="mx-clip-620-463-130-24-0-9-9-9-5-4-4">
      <rect x="620" y="463" width="130" height="24" id="rect29-3-7-7-0-7-2"/>
    </clipPath>
    <clipPath id="mx-clip-620-437-130-24-0-7-9-2-8">
      <rect x="620" y="437" width="130" height="24" id="rect26-0-24-6-06"/>
    </clipPath>
    <clipPath id="mx-clip-620-463-130-24-0-9-9-9-7">
      <rect x="620" y="463" width="130" height="24" id="rect29-3-7-7-2"/>
    </clipPath>
    <clipPath id="mx-clip-620-437-130-24-0-7-9-2-8-2">
      <rect x="620" y="437" width="130" height="24" id="rect26-0-24-6-06-5"/>
    </clipPath>
    <clipPath id="mx-clip-620-463-130-24-0-9-9-9-7-5">
      <rect x="620" y="463" width="130" height="24" id="rect29-3-7-7-2-3"/>
    </clipPath>
    <clipPath id="mx-clip-835-186-130-24-0-28">
      <rect x="835" y="186" width="130" height="24" id="rect107-7"/>
    </clipPath>
    <clipPath id="mx-clip-835-212-130-24-0-6">
      <rect x="835" y="212" width="130" height="24" id="rect110-9"/>
    </clipPath>
    <clipPath id="mx-clip-835-238-130-24-0-4">
      <rect x="835" y="238" width="130" height="24" id="rect113-3"/>
    </clipPath>
    <clipPath id="mx-clip-835-186-130-24-0-28-6">
      <rect x="835" y="186" width="130" height="24" id="rect107-7-9"/>
    </clipPath>
    <clipPath id="mx-clip-835-212-130-24-0-6-8">
      <rect x="835" y="212" width="130" height="24" id="rect110-9-2"/>
    </clipPath>
    <clipPath id="mx-clip-835-238-130-24-0-4-4">
      <rect x="835" y="238" width="130" height="24" id="rect113-3-2"/>
    </clipPath>
    <clipPath id="mx-clip-835-238-130-24-0-4-4-2">
      <rect x="835" y="238" width="130" height="24" id="rect113-3-2-8"/>
    </clipPath>
    <clipPath id="mx-clip-620-437-130-24-0-7-9-2-8-2-9">
      <rect x="620" y="437" width="130" height="24" id="rect26-0-24-6-06-5-6"/>
    </clipPath>
    <clipPath id="mx-clip-620-463-130-24-0-9-9-9-7-5-5">
      <rect x="620" y="463" width="130" height="24" id="rect29-3-7-7-2-3-4"/>
    </clipPath>
    <clipPath id="mx-clip-620-359-130-24-0-5">
      <rect x="620" y="359" width="130" height="24" id="rect17-9"/>
    </clipPath>
    <clipPath id="mx-clip-620-385-130-24-0-8">
      <rect x="620" y="385" width="130" height="24" id="rect20-2"/>
    </clipPath>
    <clipPath id="mx-clip-835-186-130-24-0-284">
      <rect x="835" y="186" width="130" height="24" id="rect107-8"/>
    </clipPath>
    <clipPath id="mx-clip-835-212-130-24-0-3">
      <rect x="835" y="212" width="130" height="24" id="rect110-2"/>
    </clipPath>
    <clipPath id="mx-clip-835-238-130-24-0-3">
      <rect x="835" y="238" width="130" height="24" id="rect113-2"/>
    </clipPath>
    <clipPath id="mx-clip-835-186-130-24-0-284-1">
      <rect x="835" y="186" width="130" height="24" id="rect107-8-9"/>
    </clipPath>
    <clipPath id="mx-clip-835-212-130-24-0-3-0">
      <rect x="835" y="212" width="130" height="24" id="rect110-2-5"/>
    </clipPath>
    <clipPath id="mx-clip-835-238-130-24-0-3-8">
      <rect x="835" y="238" width="130" height="24" id="rect113-2-9"/>
    </clipPath>
    <clipPath id="mx-clip-835-186-130-24-0-28-6-2">
      <rect x="835" y="186" width="130" height="24" id="rect107-7-9-8"/>
    </clipPath>
    <clipPath id="mx-clip-835-212-130-24-0-6-8-2">
      <rect x="835" y="212" width="130" height="24" id="rect110-9-2-8"/>
    </clipPath>
    <clipPath id="mx-clip-835-238-130-24-0-4-4-1">
      <rect x="835" y="238" width="130" height="24" id="rect113-3-2-83"/>
    </clipPath>
    <clipPath id="mx-clip-835-238-130-24-0-4-4-2-1">
      <rect x="835" y="238" width="130" height="24" id="rect113-3-2-8-4"/>
    </clipPath>
  </defs>
  <g xmlns:inkscape="http://www.inkscape.org/namespaces/inkscape" inkscape:groupmode="layer" id="layer4" inkscape:label="to_extract" style="display:inline" transform="translate(0.5,558.50002)">
    <rect inkscape:export-ydpi="65.599998" inkscape:export-xdpi="65.599998" ry="41.725674" rx="44.391396" y="-556.08728" x="1.4127955" height="1096.1744" width="1796.1744" id="rect3084-5-4-0" style="display:inline;opacity:1;fill:none;fill-opacity:1;stroke:#000000;stroke-width:3.82559109;stroke-miterlimit:4;stroke-dasharray:none;stroke-opacity:1"/>
    <ellipse style="display:inline;opacity:1;fill:none;fill-opacity:1;stroke:#000000;stroke-width:2.79999995;stroke-miterlimit:4;stroke-dasharray:none;stroke-opacity:1" id="path1165-1-50-0" cx="-279.41946" cy="-163.65776" rx="16.094395" ry="16.465614" transform="rotate(179.59764)"/>
    <ellipse style="display:inline;opacity:1;fill:none;fill-opacity:1;stroke:#000000;stroke-width:2.79999995;stroke-miterlimit:4;stroke-dasharray:none;stroke-opacity:1" id="path1165-1-0-5-2" cx="-239.36256" cy="-163.65776" rx="16.094395" ry="16.465614" transform="rotate(179.59764)"/>
    <ellipse style="display:inline;opacity:1;fill:none;fill-opacity:1;stroke:#000000;stroke-width:2.79999995;stroke-miterlimit:4;stroke-dasharray:none;stroke-opacity:1" id="path1165-1-5-7-6" cx="-199.30531" cy="-163.65776" rx="16.094395" ry="16.465614" transform="rotate(179.59764)"/>
    <ellipse style="display:inline;opacity:1;fill:#2aff2a;fill-opacity:1;stroke:#000000;stroke-width:2.79999995;stroke-miterlimit:4;stroke-dasharray:none;stroke-opacity:1" id="path1165-1-1-6-9" cx="-159.24806" cy="-163.65776" rx="16.094395" ry="16.465614" transform="rotate(179.59764)"/>
  </g>
</g>
    <text fill="red" font-family="Verdana" font-size="12" font-weight="normal" letter-spacing="0" text-anchor="start" x="25" y="40">Rec Build Time: 01-02 23:27 UTC</text>
  </g>
</svg>
